<?xml version="1.0" encoding="UTF-8" standalone="no"?>
<!DOCTYPE svg PUBLIC "-//W3C//DTD SVG 1.1//EN" "http://www.w3.org/Graphics/SVG/1.1/DTD/svg11.dtd">
<!-- Created with Vectornator (http://vectornator.io/) -->
<svg height="100%" stroke-miterlimit="10" style="fill-rule:nonzero;clip-rule:evenodd;stroke-linecap:round;stroke-linejoin:round;" version="1.1" viewBox="0 0 1024 1024" width="100%" xml:space="preserve" xmlns="http://www.w3.org/2000/svg" xmlns:vectornator="http://vectornator.io" xmlns:xlink="http://www.w3.org/1999/xlink">
<defs/>
<g id="레이어-1" vectornator:layerName="레이어 1">
<path d="M255.125 120.469C175.673 120.469 111.281 184.892 111.281 264.344L111.281 778.062C111.281 857.514 175.673 921.906 255.125 921.906L768.844 921.906C848.296 921.906 912.719 857.515 912.719 778.062L912.719 264.344C912.719 184.892 848.296 120.469 768.844 120.469L255.125 120.469ZM367.125 166.375L656.844 166.375C662.367 166.375 666.844 170.852 666.844 176.375L666.844 309.094C666.844 314.617 662.367 319.094 656.844 319.094L367.125 319.094C361.602 319.094 357.125 314.617 357.125 309.094L357.125 176.375C357.125 170.852 361.602 166.375 367.125 166.375ZM356 365L362 370.906L368 376.781L368 392.906L368 409L364.094 412.781L360.312 416.5L358.094 413.781C356.094 411.281 356 410.1 356 388L356 365ZM603 365L609 370.906L615 376.781L615 392.906L615 409L611.094 412.781L607.312 416.5L605.094 413.781C603.094 411.281 603 410.1 603 388L603 365ZM420.688 365.406C420.887 365.406 421 375.681 421 388.281C421 410.081 420.906 411.281 418.906 413.781L416.688 416.5L412.906 412.781L409 409L409 393L409 377L414.688 371.188C417.888 367.987 420.587 365.406 420.688 365.406ZM470.406 365.406L489.406 365.406L492.188 368.094L495 370.781L492.312 373.594L489.594 376.406L471 376.406L452.406 376.406L449.5 373.406L446.594 370.406L449 367.906C451.3 365.406 451.406 365.406 470.406 365.406ZM523.594 365.406L548.094 365.406L572.688 365.406L575 367.906L577.406 370.406L574.5 373.406L571.594 376.406L553 376.406L534.406 376.406L529 370.906L523.594 365.406ZM658 365.406L662 365.406L662 369.781C662 374.181 661.994 374.181 643.594 391.781C626.694 407.981 624.994 409.406 621.594 409.406C617.994 409.406 618 409.394 618 405.094C618 400.694 618.1 400.594 636 383.094C653.2 366.094 654.1 365.406 658 365.406ZM521 367L527 372.906L533 378.781L533 393.781L533 408.781L529.312 412.594L525.594 416.406L523.312 414.188C521.013 412.088 521 411.8 521 389.5L521 367ZM444.375 373.5C445.3 373.487 446.237 374.194 447.688 375.594C449.887 377.694 450 378.306 450 393.406L450 409L446.5 412.406C443.1 415.706 443 415.706 441 413.906C439.1 412.206 439 410.894 439 395.094C439 378.994 439.087 377.888 441.188 375.688C442.538 374.237 443.45 373.513 444.375 373.5ZM579.375 373.5C580.3 373.487 581.237 374.194 582.688 375.594C584.887 377.694 585 378.306 585 394.906C585 410.906 584.9 412.206 583 413.906C581 415.706 580.9 415.706 577.5 412.406L574 409L574 393.5C574 379 574.087 377.888 576.188 375.688C577.538 374.237 578.45 373.513 579.375 373.5ZM496.938 373.562C497.675 373.612 498.487 374.444 500.188 376.094L503 378.781L503 395.281C503 410.881 502.913 411.894 500.812 414.094L498.594 416.406L495.312 413.188L492 410L492 394C492 379 492.087 377.888 494.188 375.688C495.538 374.237 496.2 373.513 496.938 373.562ZM533.406 412.406L553 412.406L572.594 412.406L575.5 415.406L578.406 418.406L575.5 421.406L572.594 424.406L553 424.406L533.406 424.406L530.5 421.406L527.594 418.406L530.5 415.406L533.406 412.406ZM615.406 412.406L635.5 412.406L655.594 412.406L658.5 415.406L661.406 418.406L658.5 421.406L655.594 424.406L635.5 424.406L615.406 424.406L612.5 421.406L609.594 418.406L612.5 415.406L615.406 412.406ZM360.312 420.188L364.094 424L368 427.781L368 442.781L368 457.781L362.812 463.094C359.912 465.994 357.213 468.406 356.812 468.406C356.412 468.406 356 458.881 356 447.281C356 427.381 356.094 425.988 358.094 423.188L360.312 420.188ZM607.312 420.188L611.094 424L615 427.781L615 443.906L615 460L609 465.906L603 471.781L603 449C603 427.4 603.094 426.088 605.094 423.188L607.312 420.188ZM416.5 420.281L418.812 422.906C420.912 425.406 421 426.2 421 447C421 458.8 420.713 468.406 420.312 468.406C419.912 468.406 417.213 466.088 414.312 463.188L409 458L409 443L409 428L412.812 424.094L416.5 420.281ZM663.5 420.281L665.812 422.906C667.913 425.406 668 426.087 668 448.688L668 471.781L662 465.906L656 460L656 444L656 428L659.812 424.094L663.5 420.281ZM388.406 420.406L391.188 423.094C393.987 425.794 394 425.781 394 438.781C394 451.481 393.913 451.794 391.312 454.594L388.594 457.406L385.812 454.688C383.013 451.988 383 452 383 439C383 426.3 383.087 425.988 385.688 423.188L388.406 420.406ZM498.406 420.406L500.688 422.594C502.887 424.694 503 425.306 503 441.406L503 458L500 460.906L497 463.781L494.5 461.406C492 459.106 492 458.8 492 443L492 427L495.188 423.688L498.406 420.406ZM525.406 420.406L529.188 424.094L533 427.781L533 443.906L533 460L527 465.906L521 471.781L521 448.406C521 425.706 521.087 424.988 523.188 422.688L525.406 420.406ZM443.031 421.594C443.781 421.781 444.737 422.744 446.688 424.594L450 427.781L450 443.281C450 457.781 449.913 458.894 447.812 461.094C445.113 463.994 444.213 463.988 441.312 461.188C439.113 459.088 439 458.494 439 442.094C439 427.594 439.287 424.788 440.688 423.188C441.737 421.987 442.281 421.406 443.031 421.594ZM544.188 427.406C548.387 427.406 548.787 427.694 566.688 445.594C583.887 462.794 585 464.094 585 467.594C585 471.394 585.013 471.406 580.812 471.406C576.613 471.406 576.213 471.088 558.312 453.188C541.113 435.988 540 434.688 540 431.188C540 427.387 539.987 427.406 544.188 427.406ZM369.406 460.406L388.5 460.406L407.594 460.406L412.406 465.906L417.094 471.406L388.5 471.406L359.906 471.406L364.594 465.906L369.406 460.406ZM452.406 460.406L470.906 460.406L489.406 460.406L492.188 463.094L495 465.781L492.312 468.594L489.594 471.406L470.5 471.406C451.4 471.406 451.3 471.406 449 468.906L446.594 466.406L449.5 463.406L452.406 460.406ZM480 533L485.5 538.406L491 543.781L491 560.781L491 577.781L487.812 581.094L484.594 584.406L482.312 582.188C480.013 580.088 480 579.8 480 556.5L480 533ZM543.5 533.281L543.812 556.594C544.013 578.694 543.9 579.881 542 581.781L540 583.781L536.5 580.406L533 577L533 560.5L533 544L538.312 538.594L543.5 533.281ZM429.406 533.406L448.406 533.406L451.188 536.094L454 538.781L451.312 541.594L448.594 544.406L430 544.406L411.406 544.406L408.5 541.406L405.594 538.406L408 535.906C410.3 533.406 410.406 533.406 429.406 533.406ZM562.594 533.406L593.906 533.406L625.188 533.406L620.312 538.781L615.5 544.281L594.5 544.281L573.406 544.406L568 538.906L562.594 533.406ZM455.906 541.406C456.206 541.406 457.687 542.594 459.188 544.094L462 546.781L462 563.281C462 578.881 461.913 579.894 459.812 582.094L457.594 584.406L453.812 580.688L450 577L450 562C450 547.1 449.987 546.988 452.688 544.188C454.187 542.687 455.606 541.406 455.906 541.406ZM402.719 541.594C403.394 541.581 404.2 542.244 406 543.594L409 545.781L409 561.406L409 577L405.5 580.406C402.1 583.706 402 583.706 400 581.906C398.1 580.206 398 578.894 398 563.094C398 546.994 398.087 545.888 400.188 543.688C401.487 542.288 402.044 541.606 402.719 541.594ZM594.406 546.406L597.188 549.094L600 551.781L600 568.906C600 584.906 599.9 586.206 598 587.906C596 589.706 595.9 589.706 592.5 586.406L589 583L589 567.5C589 552 588.987 551.988 591.688 549.188L594.406 546.406ZM457.406 588.406L459.688 590.594C461.887 592.694 462 593.306 462 609.406L462 626L459 628.906L456 631.781L453 628.906L450 626L450 611L450 596L453.688 592.188L457.406 588.406ZM484.406 588.406L487.688 591.594L491 594.781L491 610.906C491 626.806 491 627.106 488.5 629.406L486 631.781L483 628.906L480 626L480 609.5C480 593.9 480.087 592.888 482.188 590.688L484.406 588.406ZM402.031 589.594C402.781 589.781 403.737 590.744 405.688 592.594L409 595.781L409 610.906L409 626L406 628.906L403 631.781L400.5 629.406C398 627.106 398 626.894 398 610.094C398 595.594 398.287 592.788 399.688 591.188C400.737 589.987 401.281 589.406 402.031 589.594ZM539.688 589.656C540.425 589.456 540.987 589.994 542.188 591.094C543.787 592.494 544 594.506 544 609.406L544 626L541 628.906L538 631.781L535.5 629.406C533 627.106 533 626.8 533 611.5L533 596L536.188 592.688C538.038 590.788 538.95 589.856 539.688 589.656ZM595.156 595.219C595.881 594.994 596.494 595.344 597.594 596.094C599.994 597.594 600 597.781 600 615.781L600 634L597 636.906L594 639.781L591.5 637.406C589 635.106 589 634.9 589 618L589 601L592.094 597.781C593.594 596.231 594.431 595.444 595.156 595.219ZM411.406 628.406L429.906 628.406L448.406 628.406L451.188 631.094L454 633.781L451.312 636.594L448.594 639.406L429.5 639.406C410.4 639.406 410.3 639.406 408 636.906L405.594 634.406L408.5 631.406L411.406 628.406ZM493.406 628.406L512 628.406L530.594 628.406L533.5 631.406L536.406 634.406L534 636.906L531.688 639.406L512 639.406L492.312 639.406L490 636.906L487.594 634.406L490.5 631.406L493.406 628.406ZM398 701L403.5 706.406L409 711.781L409 728.406L409 745L405.5 748.406C402.1 751.706 402 751.706 400 749.906C398.1 748.206 398 746.9 398 724.5L398 701ZM562 701L568 706.906L574 712.781L574 728.781L574 744.781L570.312 748.594L566.594 752.406L564.312 750.188C562.013 748.087 562 747.8 562 724.5L562 701ZM625.5 701.094L625.812 724.188C626.013 744.487 625.806 747.7 624.406 750L622.688 752.5L618.812 748.781L615 745L615 728.781L615 712.594L620.312 706.781L625.5 701.094ZM461.5 701.281L461.812 724.5C462.012 747.3 462.013 747.794 459.812 750.094L457.594 752.406L453.812 748.688L450 745L450 729L450 713L455.812 707.094L461.5 701.281ZM492.312 701.406L512 701.406L531.688 701.406L534 703.906L536.406 706.406L533.5 709.406L530.594 712.406L512 712.406L493.406 712.406L490.5 709.406L487.594 706.406L490 703.906L492.312 701.406ZM485.906 709.406C486.106 709.406 487.387 710.394 488.688 711.594C490.887 713.694 491 714.281 491 729.781L491 745.781L487.812 749.094L484.594 752.406L482.312 750.188C480.113 748.087 480 747.5 480 731.5L480 715L482.688 712.188C484.187 710.687 485.606 709.406 485.906 709.406ZM537.938 709.562C538.675 709.613 539.487 710.444 541.188 712.094L544 714.781L544 731.406C544 746.906 543.9 748.206 542 749.906C540 751.706 539.9 751.706 536.5 748.406L533 745L533 729.5C533 715 533.087 713.888 535.188 711.688C536.538 710.238 537.2 709.513 537.938 709.562ZM415.688 712.406C419.188 712.406 420.487 713.394 433.688 726.594C446.987 739.894 448 741.094 448 744.594C448 748.394 448.013 748.406 443.812 748.406C439.713 748.406 439.113 747.988 425.812 734.688C412.412 721.288 412 720.788 412 716.688C412 712.387 411.987 712.406 415.688 712.406ZM457.406 756.406L459.688 758.594C461.987 760.694 462 760.981 462 784.281L462 807.781L456 801.906L450 796L450 780L450 764L453.688 760.188L457.406 756.406ZM484.406 756.406L487.688 759.594L491 762.781L491 778.906C491 794.806 491 795.106 488.5 797.406L486 799.781L483 796.906L480 794L480 777.5C480 761.9 480.087 760.888 482.188 758.688L484.406 756.406ZM566.406 756.406L570.188 760.094L574 763.781L574 778.906L574 794L568 799.906L562 805.781L562 783.406C562 761.806 562.087 760.988 564.188 758.688L566.406 756.406ZM594.406 756.406L597.188 759.094C599.987 761.793 600 761.806 600 774.906L600 788L597 790.906L594 793.781L591.5 791.406C589.1 789.106 589 788.7 589 775.5C589 762.2 588.987 761.988 591.688 759.188L594.406 756.406ZM622.312 756.5L624.094 758.906C625.794 761.006 626 763.3 626 783L626 804.781L620.5 799.406L615 794L615 779L615 764L618.594 760.188L622.312 756.5ZM402.031 757.594C402.781 757.781 403.737 758.744 405.688 760.594L409 763.781L409 780.406L409 797L403.5 802.406L398 807.781L398 784.406C398 764.106 398.187 760.788 399.688 759.188C400.737 757.987 401.281 757.406 402.031 757.594ZM539.688 757.656C540.425 757.456 540.987 757.994 542.188 759.094C543.787 760.494 544 762.506 544 777.406L544 794L541 796.906L538 799.781L535.5 797.406C533 795.106 533 794.8 533 779.5L533 764L536.188 760.688C538.038 758.787 538.95 757.856 539.688 757.656ZM493.406 796.406L512 796.406L530.594 796.406L533.5 799.406L536.406 802.406L534 804.906L531.688 807.406L512 807.406L492.312 807.406L490 804.906L487.594 802.406L490.5 799.406L493.406 796.406ZM575.406 796.406L594 796.406L612.594 796.406L618 801.906L623.406 807.406L594 807.406L564.594 807.406L570 801.906L575.406 796.406Z" fill="#000000" fill-rule="nonzero" opacity="1" stroke="none"/>
<g opacity="1">
<path d="M397.5 219.03C397.5 241.13 397.6 242.33 399.6 244.83L401.8 247.53L405.6 243.83L409.5 240.03L409.5 223.93L409.5 207.83L403.5 201.93L397.5 196.03L397.5 219.03Z" fill="#000000" fill-rule="nonzero" opacity="1" stroke="none"/>
<path d="M456.2 202.23L450.5 208.03L450.5 224.03L450.5 240.03L454.4 243.83L458.2 247.53L460.4 244.83C462.4 242.33 462.5 241.13 462.5 219.33C462.5 206.73 462.4 196.43 462.2 196.43C462.1 196.43 459.4 199.03 456.2 202.23Z" fill="#000000" fill-rule="nonzero" opacity="1" stroke="none"/>
<path d="M490.5 198.93L488.1 201.43L491 204.43L493.9 207.43L512.5 207.43L531.1 207.43L533.8 204.63L536.5 201.83L533.7 199.13L530.9 196.43L511.9 196.43C492.9 196.43 492.8 196.43 490.5 198.93Z" fill="#000000" fill-rule="nonzero" opacity="1" stroke="none"/>
<path d="M562.5 219.53C562.5 242.83 562.5 243.13 564.8 245.23L567.1 247.43L570.8 243.63L574.5 239.83L574.5 223.83L574.5 207.83L568.5 201.93L562.5 196.03L562.5 219.53Z" fill="#000000" fill-rule="nonzero" opacity="1" stroke="none"/>
<path d="M620.8 201.63L615.5 207.03L615.5 223.53L615.5 240.03L619 243.43L622.5 246.83L624.5 244.83C626.4 242.93 626.5 241.73 626.3 219.63L626 196.33L620.8 201.63Z" fill="#000000" fill-rule="nonzero" opacity="1" stroke="none"/>
<path d="M482.7 206.73C480.6 208.93 480.5 210.03 480.5 226.13C480.5 241.93 480.6 243.23 482.5 244.93C484.5 246.73 484.6 246.73 488 243.43L491.5 240.03L491.5 224.43C491.5 209.33 491.4 208.73 489.2 206.63C486.3 203.83 485.4 203.83 482.7 206.73Z" fill="#000000" fill-rule="nonzero" opacity="1" stroke="none"/>
<path d="M535.7 206.73C533.6 208.93 533.5 210.03 533.5 225.03L533.5 241.03L536.8 244.23L540.1 247.43L542.3 245.13C544.4 242.93 544.5 241.93 544.5 226.33L544.5 209.83L541.7 207.13C538.3 203.83 538.4 203.83 535.7 206.73Z" fill="#000000" fill-rule="nonzero" opacity="1" stroke="none"/>
<path d="M576.5 211.33C576.5 215.13 577.2 216.03 590.8 229.33C603.9 242.33 605.3 243.43 608.8 243.43L612.5 243.43L612.5 239.13C612.5 235.03 612.1 234.53 598.7 221.13C585.4 207.83 584.8 207.43 580.7 207.43L576.5 207.43L576.5 211.33Z" fill="#000000" fill-rule="nonzero" opacity="1" stroke="none"/>
<path d="M399.6 254.23C397.6 257.03 397.5 258.43 397.5 278.33C397.5 289.93 397.9 299.43 398.3 299.43C398.7 299.43 401.4 297.03 404.3 294.13L409.5 288.83L409.5 273.83L409.5 258.83L405.6 255.03L401.8 251.23L399.6 254.23Z" fill="#000000" fill-rule="nonzero" opacity="1" stroke="none"/>
<path d="M427.2 254.23C424.6 257.03 424.5 257.33 424.5 270.03C424.5 283.03 424.5 283.03 427.3 285.73L430.1 288.43L432.8 285.63C435.4 282.83 435.5 282.53 435.5 269.83C435.5 256.83 435.5 256.83 432.7 254.13L429.9 251.43L427.2 254.23Z" fill="#000000" fill-rule="nonzero" opacity="1" stroke="none"/>
<path d="M454.3 255.13L450.5 259.03L450.5 274.03L450.5 289.03L455.8 294.23C458.7 297.13 461.4 299.43 461.8 299.43C462.2 299.43 462.5 289.83 462.5 278.03C462.5 257.23 462.4 256.43 460.3 253.93L458 251.33L454.3 255.13Z" fill="#000000" fill-rule="nonzero" opacity="1" stroke="none"/>
<path d="M536.7 254.73L533.5 258.03L533.5 274.03C533.5 289.83 533.5 290.13 536 292.43L538.5 294.83L541.5 291.93L544.5 289.03L544.5 272.43C544.5 256.33 544.4 255.73 542.2 253.63L539.9 251.43L536.7 254.73Z" fill="#000000" fill-rule="nonzero" opacity="1" stroke="none"/>
<path d="M564.7 253.73C562.6 256.03 562.5 256.73 562.5 279.43L562.5 302.83L568.5 296.93L574.5 291.03L574.5 274.93L574.5 258.83L570.7 255.13L566.9 251.43L564.7 253.73Z" fill="#000000" fill-rule="nonzero" opacity="1" stroke="none"/>
<path d="M482.2 254.23C480.8 255.83 480.5 258.63 480.5 273.13C480.5 289.53 480.6 290.13 482.8 292.23C485.7 295.03 486.6 295.03 489.3 292.13C491.4 289.93 491.5 288.83 491.5 274.33L491.5 258.83L488.2 255.63C484.3 251.93 484.3 251.83 482.2 254.23Z" fill="#000000" fill-rule="nonzero" opacity="1" stroke="none"/>
<path d="M618.7 255.73L615.5 259.03L615.5 275.53L615.5 292.03L621 297.43L626.5 302.83L626.5 279.33C626.5 257.73 626.3 255.63 624.7 254.13C622.3 251.93 622.4 251.93 618.7 255.73Z" fill="#000000" fill-rule="nonzero" opacity="1" stroke="none"/>
<path d="M406.1 296.93L401.4 302.43L430 302.43L458.6 302.43L453.9 296.93L449.1 291.43L430 291.43L410.9 291.43L406.1 296.93Z" fill="#000000" fill-rule="nonzero" opacity="1" stroke="none"/>
<path d="M491 294.43L488.1 297.43L490.5 299.93C492.8 302.43 492.9 302.43 512 302.43L531.1 302.43L533.8 299.63L536.5 296.83L533.7 294.13L530.9 291.43L512.4 291.43L493.9 291.43L491 294.43Z" fill="#000000" fill-rule="nonzero" opacity="1" stroke="none"/>
</g>
</g>
</svg>
